HIERARCHY
ROOT SimulationBone
{
	OFFSET 0.000000 0.000000 0.000000
	CHANNELS 6 Xposition Yposition Zposition Zrotation Yrotation Xrotation 
	JOINT Hips
	{
		OFFSET 0.000000 0.000000 0.000000
		CHANNELS 6 Xposition Yposition Zposition Zrotation Yrotation Xrotation 
		JOINT LeftUpLeg
		{
			OFFSET 0.103457 1.857840 10.548497
			CHANNELS 3 Zrotation Yrotation Xrotation
			JOINT LeftLeg
			{
				OFFSET 43.499996 -0.000046 -0.000021
				CHANNELS 3 Zrotation Yrotation Xrotation
				JOINT LeftFoot
				{
					OFFSET 42.372200 0.000019 0.000010
					CHANNELS 3 Zrotation Yrotation Xrotation
					JOINT LeftToe
					{
						OFFSET 17.299992 -0.000004 -0.000006
						CHANNELS 3 Zrotation Yrotation Xrotation
						End Site
						{
							OFFSET 0.000000 0.000000 0.000000
						}
					}
				}
			}
		}
		JOINT RightUpLeg
		{
			OFFSET 0.103462 1.857830 -10.548500
			CHANNELS 3 Zrotation Yrotation Xrotation
			JOINT RightLeg
			{
				OFFSET 43.500050 -0.000008 0.000013
				CHANNELS 3 Zrotation Yrotation Xrotation
				JOINT RightFoot
				{
					OFFSET 42.372265 -0.000008 0.000010
					CHANNELS 3 Zrotation Yrotation Xrotation
					JOINT RightToe
					{
						OFFSET 17.299980 -0.000009 0.000011
						CHANNELS 3 Zrotation Yrotation Xrotation
						End Site
						{
							OFFSET 0.000000 0.000000 0.000000
						}
					}
				}
			}
		}
		JOINT Spine
		{
			OFFSET 6.901966 -2.603740 0.000004
			CHANNELS 3 Zrotation Yrotation Xrotation
			JOINT Spine1
			{
				OFFSET 12.588106 0.000010 -0.000001
				CHANNELS 3 Zrotation Yrotation Xrotation
				JOINT Spine2
				{
					OFFSET 12.343197 0.000001 -0.000010
					CHANNELS 3 Zrotation Yrotation Xrotation
					JOINT Neck
					{
						OFFSET 25.832893 -0.000006 0.000008
						CHANNELS 3 Zrotation Yrotation Xrotation
						JOINT Head
						{
							OFFSET 11.766615 -0.000006 -0.000000
							CHANNELS 3 Zrotation Yrotation Xrotation
							End Site
							{
								OFFSET 0.000000 0.000000 0.000000
							}
						}
					}
					JOINT LeftShoulder
					{
						OFFSET 19.745903 -1.480366 6.000110
						CHANNELS 3 Zrotation Yrotation Xrotation
						JOINT LeftArm
						{
							OFFSET 11.284130 -0.000010 -0.000024
							CHANNELS 3 Zrotation Yrotation Xrotation
							JOINT LeftForeArm
							{
								OFFSET 33.000046 0.000022 0.000031
								CHANNELS 3 Zrotation Yrotation Xrotation
								JOINT LeftHand
								{
									OFFSET 25.200022 0.000011 0.000002
									CHANNELS 3 Zrotation Yrotation Xrotation
									End Site
									{
										OFFSET 0.000000 0.000000 0.000000
									}
								}
							}
						}
					}
					JOINT RightShoulder
					{
						OFFSET 19.746103 -1.480371 -6.000066
						CHANNELS 3 Zrotation Yrotation Xrotation
						JOINT RightArm
						{
							OFFSET 11.284146 -0.000005 -0.000007
							CHANNELS 3 Zrotation Yrotation Xrotation
							JOINT RightForeArm
							{
								OFFSET 33.000076 0.000011 0.000008
								CHANNELS 3 Zrotation Yrotation Xrotation
								JOINT RightHand
								{
									OFFSET 25.199783 0.000146 0.000422
									CHANNELS 3 Zrotation Yrotation Xrotation
									End Site
									{
										OFFSET 0.000000 0.000000 0.000000
									}
								}
							}
						}
					}
				}
			}
		}
	}
}
MOTION
Frames: 11
Frame Time: 0.033333
-199.110525 0.000000 -215.474062 180.000000 -9.060829 180.000000 -1.700599 88.123734 -1.965608 89.039939 -4.733120 173.720873 169.554651 0.364593 173.591553 -37.004906 -1.317079 0.553013 92.136165 -0.521504 -1.281626 21.454557 0.003092 0.000000 142.767278 5.638795 -176.657980 -92.300499 -2.907431 -1.141843 91.834803 1.529286 4.549112 21.454553 -0.003108 -0.000017 6.530385 -0.011557 -1.759372 3.047586 0.022341 -3.518430 2.730150 0.001243 -3.518499 16.930304 4.326287 0.147154 -7.548447 -6.424395 2.200602 -160.992135 -85.381149 -20.766418 -15.304302 61.516625 18.266709 -63.940515 -16.422532 2.346501 -4.720940 -15.739271 22.288506 -167.991535 75.198689 13.696823 25.199737 -61.400853 -36.976199 -38.252498 13.697780 -1.355845 6.199107 9.951252 9.958609 
-204.318898 0.000000 -215.400638 180.000000 -9.692363 180.000000 -2.039950 88.826141 -2.361389 88.367206 -4.445135 175.428394 173.528073 0.467805 174.349280 -33.189703 -0.931362 1.107856 90.227154 -0.876733 -1.017732 21.454553 0.003090 0.000000 139.806924 5.182298 -174.231432 -79.472898 -2.807798 -2.830685 90.223500 2.959393 6.003259 21.454562 -0.003108 -0.000019 6.410401 0.101145 -2.139636 2.803298 0.252991 -4.276254 2.486152 0.227323 -4.277700 15.978309 4.649182 0.065923 -7.595625 -6.622236 2.233105 -156.365529 -86.288806 -25.409750 -21.393986 59.789058 12.120563 -68.143937 -15.010794 2.416534 -4.143436 -14.677329 20.791422 -168.048021 75.087780 13.638980 29.696255 -58.692191 -42.118266 -41.649486 13.939983 -1.460622 0.033344 3.104941 -5.348811 
-209.361825 0.000000 -215.233197 180.000000 -10.378464 180.000000 -2.139285 88.776199 -2.736261 87.546697 -4.534634 177.216272 176.868268 0.678802 175.303758 -30.546676 -0.555351 1.701585 89.546553 -1.275325 -0.961856 21.454553 0.003093 0.000000 138.096631 5.744995 -173.082922 -64.489635 -2.870670 -2.480031 87.483679 2.991800 6.861656 21.454557 -0.003109 -0.000015 6.228129 0.166634 -2.456376 2.435263 0.383590 -4.908817 2.118425 0.354112 -4.911034 15.179271 4.211426 0.002951 -7.728298 -6.148352 2.042089 -155.948996 -86.793195 -25.818651 -26.369873 57.527528 6.404732 -72.135117 -13.319733 2.463149 -3.350074 -12.937701 21.022055 -167.841899 75.988218 13.849564 34.536367 -56.333819 -49.026442 -45.854707 14.795370 -1.637373 -0.660656 -0.638016 -12.229583 
-214.244235 0.000000 -214.972427 180.000000 -11.117955 180.000000 -1.888059 88.114563 -2.765197 87.312821 -4.402329 179.356680 -179.648168 0.065095 176.520420 -29.186973 -0.377533 2.442808 90.042691 -1.785664 -1.072458 21.454555 0.003093 0.000000 139.187316 6.370805 -172.502834 -46.724907 -3.969330 -2.631214 84.841181 3.666391 8.812552 21.454557 -0.003108 -0.000016 6.187506 0.242257 -2.721262 2.349477 0.538226 -5.437231 2.032907 0.505566 -5.440367 14.130447 3.809580 -0.106013 -7.480900 -5.473745 1.732323 -160.814550 -87.437076 -20.920535 -30.732139 55.242809 1.419593 -75.508725 -11.912763 2.506930 -2.707785 -11.645811 22.824809 -167.491688 76.345170 14.207303 39.499346 -54.119803 -52.328637 -50.205517 15.035179 -1.789398 -0.445685 -0.753926 -14.593628 
-218.971057 0.000000 -214.619018 180.000000 -11.910520 180.000000 -1.784872 87.626900 -2.760408 87.652493 -3.442810 -178.389694 -175.189516 -1.531495 178.470575 -26.388958 -0.464187 2.527238 90.323883 -1.889397 -1.356242 21.454557 0.003091 0.000000 142.628283 6.561006 -176.119556 -27.784482 -2.841212 -0.948735 80.318981 2.325581 6.906435 21.454562 -0.003109 -0.000017 6.368049 0.429804 -2.917054 2.699904 0.926049 -5.823685 2.383522 0.891058 -5.829144 12.597469 3.964866 -0.398201 -7.201525 -5.678767 1.539035 -156.980656 -88.444427 -24.751718 -35.563357 53.990463 -4.085429 -78.143177 -10.703568 2.534961 -3.404157 -11.141533 25.118249 -165.710580 76.747926 16.026562 42.819948 -52.898838 -53.253011 -53.701068 14.732783 -1.886241 -0.843943 0.915582 -15.806764 
-223.547221 0.000000 -214.173659 180.000000 -12.756512 180.000000 -1.384838 86.544434 -2.594382 88.106084 -3.068518 -176.344560 -171.499930 -3.208496 178.657108 -25.599365 -0.425318 3.238654 91.092150 -2.383945 -1.461929 21.454548 0.003092 0.000000 146.005389 7.675292 175.339289 -14.740177 -1.437125 3.762006 79.090421 -1.392311 5.250399 21.454557 -0.003109 -0.000017 6.476221 0.495288 -3.046275 2.911531 1.065552 -6.079619 2.595315 1.029022 -6.085907 12.023465 3.851943 -0.552235 -7.774727 -5.816713 1.456459 -149.057909 -89.116401 -32.675536 -39.327707 53.812048 -9.189241 -80.243583 -9.607996 2.548959 -2.865954 -10.222761 26.014527 -163.404093 76.882754 18.381907 44.579859 -51.885822 -52.284050 -55.371312 13.848940 -1.884944 -0.939149 2.571681 -14.983140 
-227.977655 0.000000 -213.637038 180.000000 -13.656808 180.000000 -0.871756 84.823067 -2.248335 88.983838 -3.333923 -174.426770 -168.929990 -4.996995 178.940684 -27.896566 -0.883377 4.203144 92.499217 -2.929115 -0.915919 21.454550 0.003094 0.000000 147.187708 9.869995 174.084392 -13.294396 -1.159020 5.159163 79.469517 -1.788181 7.699895 21.454550 -0.003110 -0.000018 6.599121 0.364047 -3.148096 3.163256 0.812518 -6.285384 2.847217 0.774760 -6.290145 12.405336 4.116614 -0.631136 -8.354792 -6.449312 1.599290 -159.927773 -89.510613 -21.792289 -40.915172 54.278663 -11.510470 -81.441304 -8.910934 2.552171 -4.030434 -12.604472 26.542977 -161.885715 77.140491 19.929944 45.266502 -51.264214 -51.932490 -55.051694 13.432792 -1.845766 -1.868650 4.248491 -13.011488 
-232.267288 0.000000 -213.009846 180.000000 -14.612709 180.000000 -0.619622 83.692940 -1.710809 90.133638 -1.780270 -174.271668 -167.365289 -8.583406 176.600142 -31.919663 -0.788013 5.991287 91.083844 -4.001305 0.234137 21.454553 0.003091 0.000000 146.170146 9.132996 177.752299 -20.713698 -0.962099 5.034604 73.161004 -0.221348 11.152260 21.454562 -0.003107 -0.000017 6.734408 0.557674 -2.822438 3.426818 1.197396 -5.627662 3.110293 1.163579 -5.634755 13.265423 4.518920 -0.588668 -8.515916 -7.558107 1.975168 171.507662 -89.432141 6.800565 -40.680439 56.178337 -12.472013 -82.258079 -8.308272 2.545587 -4.601253 -13.365441 26.842066 -160.633482 77.254337 21.206969 43.315895 -51.002904 -51.590748 -53.684580 13.573623 -1.807950 -1.313490 4.886405 -11.616179 
-236.421050 0.000000 -212.292770 180.000000 -15.625861 180.000000 -0.430260 83.085632 -1.088495 91.304192 0.738309 -175.479084 -167.816819 -12.046404 174.063409 -39.189891 0.688507 7.039709 85.849297 -4.429096 2.102886 21.454545 0.003096 0.000000 144.852330 6.863299 -176.205248 -28.814441 -1.422603 2.376344 68.622303 0.243307 5.662558 21.454558 -0.003109 -0.000017 6.957593 1.014487 -2.267648 3.861694 2.103107 -4.501322 3.544436 2.076052 -4.513905 14.116014 4.241580 0.189444 -9.829130 -8.099733 2.980436 -170.636280 -88.602539 -11.062620 -39.371608 58.985275 -11.298338 -81.459834 -9.164437 2.570699 -5.231245 -15.654730 27.623445 -164.448702 76.578681 17.316874 38.124583 -50.620789 -48.076223 -50.752055 13.363616 -1.695839 0.046511 5.077674 -11.543246 
-240.443869 0.000000 -211.486501 180.000000 -16.698192 180.000000 -0.089525 82.271751 -0.349152 92.152987 2.451901 -177.479904 -171.381741 -14.935301 173.880948 -51.100467 0.562627 6.892945 75.634851 -3.857159 3.371724 21.454553 0.003093 -0.000001 143.529855 5.825302 -171.257267 -37.952267 -1.913775 -0.296350 73.188298 1.575823 4.416784 21.454557 -0.003107 -0.000017 7.244987 1.377435 -1.692240 4.437502 2.818071 -3.331882 4.119566 2.798046 -3.348822 13.832679 3.385611 1.151586 -10.171668 -8.497432 4.060249 -161.940479 -86.255140 -19.802071 -36.018436 61.195667 -7.292573 -78.398038 -11.049099 2.570054 -6.344301 -16.123652 28.092840 -170.217508 76.707792 11.421707 30.832239 -51.507344 -44.411826 -44.913903 13.638103 -1.533147 0.787391 5.131503 -9.521584 
-244.340675 0.000000 -210.591726 180.000000 -17.831857 180.000000 -0.185262 82.427620 0.032918 92.200503 3.211566 -179.047230 -177.509950 -16.116101 173.963675 -63.819075 2.382135 5.109350 69.359676 -5.045630 -3.721600 21.454553 0.003090 0.000002 144.319179 5.369203 -169.525418 -41.883007 -1.966764 -1.195017 77.370143 1.924686 3.960109 21.454557 -0.003109 -0.000017 7.349500 1.522998 -1.209867 4.655973 3.092959 -2.358827 4.337685 3.078799 -2.377458 14.730575 2.660583 1.914018 -11.347136 -9.188544 5.084143 -165.966166 -85.355856 -15.755460 -33.033346 64.211175 -2.226888 -71.397975 -14.332780 2.503030 -4.865028 -17.277520 24.746175 -179.634412 77.274814 1.812209 24.346187 -53.227265 -39.177419 -39.705693 13.037849 -1.349813 3.039398 6.259260 -8.981847 
